<svg  xmlns="http://www.w3.org/2000/svg"><defs><linearGradient x1="50%" y1="0%" x2="50%" y2="100%" id="a"><stop stop-color="#9ACFFF" offset="0%"/><stop stop-color="#0087FF" offset="100%"/></linearGradient><linearGradient x1="50%" y1="0%" x2="50%" y2="100%" id="b"><stop stop-color="#9ACFFF" offset="0%"/><stop stop-color="#0087FF" offset="100%"/></linearGradient><linearGradient x1="50%" y1="0%" x2="50%" y2="100%" id="c"><stop stop-color="#9ACFFF" offset="0%"/><stop stop-color="#0087FF" offset="100%"/></linearGradient></defs><g fill="none" fill-rule="evenodd"><g opacity=".3"><path d="M8 17h120a8 8 0 0 1 8 8v336H0V25a8 8 0 0 1 8-8zm8 24v24h24V41H16zm40 0v24h24V41H56zm40 0v24h24V41H96zM16 81v24h24V81H16zm40 0v24h24V81H56zm40 0v24h24V81H96zm-80 40v24h24v-24H16zm40 0v24h24v-24H56zm40 0v24h24v-24H96zm-80 40v24h24v-24H16zm40 0v24h24v-24H56zm40 0v24h24v-24H96zm-80 40v24h24v-24H16zm40 0v24h24v-24H56zm40 0v24h24v-24H96z" fill="url(#a)" transform="translate(0 147)"/><path d="M68 147h56a4 4 0 0 1 4 4v13H64v-13a4 4 0 0 1 4-4z" fill-opacity=".3" fill="#FFF"/></g><g opacity=".3"><path d="M8 16h120a8 8 0 0 1 8 8v336H0V24a8 8 0 0 1 8-8zm8 24v24h24V40H16zm40 0v24h24V40H56zm40 0v24h24V40H96zM16 80v24h24V80H16zm40 0v24h24V80H56zm40 0v24h24V80H96zm-80 40v24h24v-24H16zm40 0v24h24v-24H56zm40 0v24h24v-24H96zm-80 40v24h24v-24H16zm40 0v24h24v-24H56zm40 0v24h24v-24H96zm-80 40v24h24v-24H16zm40 0v24h24v-24H56zm40 0v24h24v-24H96z" fill="url(#a)" transform="translate(456 148)"/><path d="M524 148h56a4 4 0 0 1 4 4v13h-64v-13a4 4 0 0 1 4-4z" fill-opacity=".5" fill="#FFF"/></g><path d="M16 72.018V36.5a2.5 2.5 0 0 1 2.5-2.5h19a2.5 2.5 0 0 1 2.5 2.5v19.78l83.613-54.83A8 8 0 0 1 136 8.14V466H0V86.831a8 8 0 0 1 3.613-6.69L16 72.018z" opacity=".3" transform="translate(320 42)" fill="url(#b)"/><g opacity=".3"><path d="M8 0h168a8 8 0 0 1 8 8v264H0V8a8 8 0 0 1 8-8zm8 24v24h24V24H16zm40 0v24h24V24H56zm40 0v24h24V24H96zM16 64v24h24V64H16zm40 0v24h24V64H56zm40 0v24h24V64H96zm-80 40v24h24v-24H16zm40 0v24h24v-24H56zm40 0v24h24v-24H96zm40-80v24h24V24h-24zm0 40v24h24V64h-24zm0 40v24h24v-24h-24z" opacity=".5" transform="translate(136 236)" fill="url(#c)"/></g><g opacity=".3"><path d="M8 0h168a8 8 0 0 1 8 8v264H0V8a8 8 0 0 1 8-8zm8 24v24h24V24H16zm40 0v24h24V24H56zm40 0v24h24V24H96zM16 64v24h24V64H16zm40 0v24h24V64H56zm40 0v24h24V64H96zm-80 40v24h24v-24H16zm40 0v24h24v-24H56zm40 0v24h24v-24H96zm40-80v24h24V24h-24zm0 40v24h24V64h-24zm0 40v24h24v-24h-24z" opacity=".5" transform="translate(592 236)" fill="url(#c)"/></g><g opacity=".3"><path d="M8 17h120a8 8 0 0 1 8 8v336H0V25a8 8 0 0 1 8-8zm8 24v24h24V41H16zm40 0v24h24V41H56zm40 0v24h24V41H96zM16 81v24h24V81H16zm40 0v24h24V81H56zm40 0v24h24V81H96zm-80 40v24h24v-24H16zm40 0v24h24v-24H56zm40 0v24h24v-24H96zm-80 40v24h24v-24H16zm40 0v24h24v-24H56zm40 0v24h24v-24H96zm-80 40v24h24v-24H16zm40 0v24h24v-24H56zm40 0v24h24v-24H96z" fill="url(#a)" transform="translate(776 147)"/><path d="M844 147h56a4 4 0 0 1 4 4v13h-64v-13a4 4 0 0 1 4-4z" fill-opacity=".3" fill="#FFF"/></g><g opacity=".3"><path d="M8 17h120a8 8 0 0 1 8 8v336H0V25a8 8 0 0 1 8-8zm8 24v24h24V41H16zm40 0v24h24V41H56zm40 0v24h24V41H96zM16 81v24h24V81H16zm40 0v24h24V81H56zm40 0v24h24V81H96zm-80 40v24h24v-24H16zm40 0v24h24v-24H56zm40 0v24h24v-24H96zm-80 40v24h24v-24H16zm40 0v24h24v-24H56zm40 0v24h24v-24H96zm-80 40v24h24v-24H16zm40 0v24h24v-24H56zm40 0v24h24v-24H96z" fill="url(#a)" transform="translate(1232 147)"/><path d="M1300 147h56a4 4 0 0 1 4 4v13h-64v-13a4 4 0 0 1 4-4z" fill-opacity=".3" fill="#FFF"/></g><path d="M16 72.018V36.5a2.5 2.5 0 0 1 2.5-2.5h19a2.5 2.5 0 0 1 2.5 2.5v19.78l83.613-54.83A8 8 0 0 1 136 8.14V466H0V86.831a8 8 0 0 1 3.613-6.69L16 72.018z" opacity=".3" transform="translate(1096)" fill="url(#b)"/><g opacity=".3"><path d="M8 0h168a8 8 0 0 1 8 8v264H0V8a8 8 0 0 1 8-8zm8 24v24h24V24H16zm40 0v24h24V24H56zm40 0v24h24V24H96zM16 64v24h24V64H16zm40 0v24h24V64H56zm40 0v24h24V64H96zm-80 40v24h24v-24H16zm40 0v24h24v-24H56zm40 0v24h24v-24H96zm40-80v24h24V24h-24zm0 40v24h24V64h-24zm0 40v24h24v-24h-24z" opacity=".5" transform="translate(912 236)" fill="url(#c)"/></g><g opacity=".3"><path d="M8 0h168a8 8 0 0 1 8 8v264H0V8a8 8 0 0 1 8-8zm8 24v24h24V24H16zm40 0v24h24V24H56zm40 0v24h24V24H96zM16 64v24h24V64H16zm40 0v24h24V64H56zm40 0v24h24V64H96zm-80 40v24h24v-24H16zm40 0v24h24v-24H56zm40 0v24h24v-24H96zm40-80v24h24V24h-24zm0 40v24h24V64h-24zm0 40v24h24v-24h-24z" opacity=".5" transform="translate(1368 236)" fill="url(#c)"/></g><path d="M353.857 390.688c-6.306-12.97-19.612-21.91-35.007-21.91a38.726 38.726 0 0 0-20.976 6.132c-6.025-25.802-29.18-45.021-56.824-45.021-9.563 0-18.588 2.3-26.553 6.376C202.182 309.546 175.157 291 143.8 291c-42.968 0-77.8 34.822-77.8 77.778 0 .416.003.83.01 1.245C66 423.029 108.97 466 161.978 466H455c-38.88-10.792-64.269-23.755-76.167-38.889-11.004-13.998-19.33-26.139-24.976-36.423z" fill="#84C5FF"/><path d="M204.857 390.688c-6.306-12.97-19.612-21.91-35.007-21.91a38.726 38.726 0 0 0-20.976 6.132c-6.025-25.802-29.18-45.021-56.824-45.021-9.563 0-18.588 2.3-26.553 6.376C53.182 309.546 26.157 291-5.2 291c-42.968 0-77.8 34.822-77.8 77.778 0 .416.003.83.01 1.245C-83 423.029-40.03 466 12.978 466H306c-38.88-10.792-64.269-23.755-76.167-38.889-11.004-13.998-19.33-26.139-24.976-36.423z" fill="#FFF"/><path d="M1086.143 390.688c6.306-12.97 19.612-21.91 35.007-21.91a38.726 38.726 0 0 1 20.976 6.132c6.025-25.802 29.18-45.021 56.824-45.021 9.563 0 18.588 2.3 26.553 6.376 12.315-26.719 39.34-45.265 70.697-45.265 42.968 0 77.8 34.822 77.8 77.778 0 .416-.003.83-.01 1.245.01 53.006-42.96 95.977-95.968 95.977H985c38.88-10.792 64.269-23.755 76.167-38.889 11.004-13.998 19.33-26.139 24.976-36.423z" fill="#84C5FF"/><path d="M1235.143 390.688c6.306-12.97 19.612-21.91 35.007-21.91a38.726 38.726 0 0 1 20.976 6.132c6.025-25.802 29.18-45.021 56.824-45.021 9.563 0 18.588 2.3 26.553 6.376 12.315-26.719 39.34-45.265 70.697-45.265 42.968 0 77.8 34.822 77.8 77.778 0 .416-.003.83-.01 1.245.01 53.006-42.96 95.977-95.968 95.977H1134c38.88-10.792 64.269-23.755 76.167-38.889 11.004-13.998 19.33-26.139 24.976-36.423z" fill="#FFF"/></g></svg>