<svg width="32" height="32" viewBox="0 0 32 32" fill="none" xmlns="http://www.w3.org/2000/svg">
<path d="M22.667 18.6667H25.3337V21.3333H22.667V18.6667Z" />
<path d="M25.3337 22.6667H22.667V25.3333H25.3337V22.6667Z" />
<path d="M8.00033 8H10.667V10.6667H8.00033V8Z" />
<path d="M14.667 8H12.0003V10.6667H14.667V8Z" />
<path d="M8.00033 12H10.667V14.6667H8.00033V12Z" />
<path d="M14.667 12H12.0003V14.6667H14.667V12Z" />
<path d="M8.00033 16H10.667V18.6667H8.00033V16Z" />
<path d="M14.667 16H12.0003V18.6667H14.667V16Z" />
<path fill-rule="evenodd" clip-rule="evenodd" d="M2.66699 2.66667H20.0003V5.98051L29.3337 12.6472V29.3333H2.66699V2.66667ZM20.0003 26.6667H26.667V14.0195L20.0003 9.25759V26.6667ZM5.33366 5.33333V26.6667H8.00033V20H14.667V26.6667H17.3337V5.33333H5.33366Z" />
</svg>
