<svg width="32" height="32" viewBox="0 0 32 32" fill="none" xmlns="http://www.w3.org/2000/svg">
<path d="M16.0003 16C16.7367 16 17.3337 15.4031 17.3337 14.6667C17.3337 13.9303 16.7367 13.3334 16.0003 13.3334C15.2639 13.3334 14.667 13.9303 14.667 14.6667C14.667 15.4031 15.2639 16 16.0003 16Z" />
<path fill-rule="evenodd" clip-rule="evenodd" d="M13.3337 2.66669V9.33335H10.667C9.19423 9.33335 8.00033 10.5273 8.00033 12V13.3334H5.33366C3.8609 13.3334 2.66699 14.5273 2.66699 16V29.3334H29.3337V16C29.3337 14.5273 28.1398 13.3334 26.667 13.3334H24.0003V12C24.0003 10.5273 22.8064 9.33335 21.3337 9.33335H16.0003V6.66669H20.0003V2.66669H13.3337ZM10.667 16V12H21.3337V16H26.667V26.6667H20.0003V18.6667H12.0003V26.6667H5.33366V16H10.667ZM17.3337 21.3334V26.6667H14.667V21.3334H17.3337Z" />
</svg>
