<svg width="32" height="32" viewBox="0 0 32 32" fill="none" xmlns="http://www.w3.org/2000/svg">
<path d="M17.3337 20V24H14.667V20H10.667V17.3333H14.667V13.3333H17.3337V17.3333H21.3337V20H17.3337Z" />
<path fill-rule="evenodd" clip-rule="evenodd" d="M9.33366 7.99999V2.66666H22.667V7.99999H26.667C28.1398 7.99999 29.3337 9.1939 29.3337 10.6667V26.6667C29.3337 28.1394 28.1398 29.3333 26.667 29.3333H5.33366C3.8609 29.3333 2.66699 28.1394 2.66699 26.6667V10.6667C2.66699 9.1939 3.8609 7.99999 5.33366 7.99999H9.33366ZM12.0003 5.33332H20.0003V7.99999H12.0003V5.33332ZM5.33366 10.6667V26.6667H26.667V10.6667H5.33366Z" />
</svg>
