<svg width="32" height="32" viewBox="0 0 32 32" fill="none" xmlns="http://www.w3.org/2000/svg">
<path d="M25.2267 7.2625C24.96 6.525 24.2133 6 23.3333 6H8.66667C7.78667 6 7.05333 6.525 6.77333 7.2625L4 14.75V24.75C4 25.4375 4.6 26 5.33333 26H6.66667C7.4 26 8 25.4375 8 24.75V23.5H24V24.75C24 25.4375 24.6 26 25.3333 26H26.6667C27.4 26 28 25.4375 28 24.75V14.75L25.2267 7.2625ZM9.13333 8.5H22.8533L24.2933 12.3875H7.69333L9.13333 8.5ZM25.3333 21H6.66667V14.75H25.3333V21Z" />
<path d="M10.5 19C11.3284 19 12 18.3284 12 17.5C12 16.6716 11.3284 16 10.5 16C9.67157 16 9 16.6716 9 17.5C9 18.3284 9.67157 19 10.5 19Z" />
<path d="M21.5 19C22.3284 19 23 18.3284 23 17.5C23 16.6716 22.3284 16 21.5 16C20.6716 16 20 16.6716 20 17.5C20 18.3284 20.6716 19 21.5 19Z" />
</svg>
