<svg width="32" height="32" viewBox="0 0 32 32" fill="none" xmlns="http://www.w3.org/2000/svg">
<path d="M16 12C18.9467 12 21.3333 9.61331 21.3333 6.66665C21.3333 3.71998 18.9467 1.33331 16 1.33331C13.0533 1.33331 10.6667 3.71998 10.6667 6.66665C10.6667 9.61331 13.0533 12 16 12ZM16 3.99998C17.4667 3.99998 18.6667 5.19998 18.6667 6.66665C18.6667 8.13331 17.4667 9.33331 16 9.33331C14.5333 9.33331 13.3333 8.13331 13.3333 6.66665C13.3333 5.19998 14.5333 3.99998 16 3.99998ZM16 15.4C12.8533 12.4666 8.64 10.6666 4 10.6666V25.3333C8.64 25.3333 12.8533 27.1333 16 30.0666C19.1467 27.1466 23.36 25.3333 28 25.3333V10.6666C23.36 10.6666 19.1467 12.4666 16 15.4ZM25.3333 22.84C21.96 23.2933 18.76 24.5733 16 26.6C13.2533 24.5733 10.04 23.28 6.66667 22.8266V13.56C9.46667 14.0666 12.0667 15.36 14.1867 17.3333L16 19.04L17.8133 17.3466C19.9333 15.3733 22.5333 14.08 25.3333 13.5733V22.84Z" />
</svg>
