<svg width="32" height="32" viewBox="0 0 32 32" fill="none" xmlns="http://www.w3.org/2000/svg">
<path d="M28.9686 24.4783L17.9181 13.4643C19.0499 10.6259 18.4658 7.27806 16.1656 4.97337C13.3665 2.18349 9.00963 1.92876 5.90627 4.18493L10.5796 8.85495L8.85142 10.5653L4.19028 5.91951C1.92665 9.00051 2.18222 13.3552 4.98134 16.1329C7.24497 18.3891 10.5431 18.9835 13.3665 17.9281L24.4535 28.9785C24.9281 29.4516 25.6948 29.4516 26.1694 28.9785L28.9686 26.1886C29.4554 25.7277 29.4554 24.9635 28.9686 24.4783ZM25.3175 26.4191L13.8046 14.9442C13.0623 15.49 12.2347 15.8175 11.3706 15.9388C9.7155 16.1814 7.97518 15.6841 6.70949 14.4226C5.55333 13.2824 5.01785 11.754 5.10304 10.2499L8.86359 13.998L14.0237 8.85495L10.2632 5.1068C11.7722 5.02189 13.2935 5.55561 14.4497 6.69582C15.764 8.00586 16.263 9.81322 15.9587 11.4993C15.8127 12.3605 15.4476 13.1611 14.8878 13.8767L26.3885 25.3395L25.3175 26.4191Z" />
<path d="M9.33366 28L6.66699 26.6667V24L9.33366 22.6667L12.0003 24V26.6667L9.33366 28Z" stroke="#0087FF" stroke-width="2"/>
</svg>
