<svg width="32" height="32" viewBox="0 0 32 32" fill="none" xmlns="http://www.w3.org/2000/svg">
<g clip-path="url(#clip0)">
<path d="M9.93972 17.8667C11.9518 17.8667 13.5761 16.1991 13.5761 14.1333C13.5761 12.0675 11.9518 10.4 9.93972 10.4C7.9276 10.4 6.30336 12.0675 6.30336 14.1333C6.30336 16.1991 7.9276 17.8667 9.93972 17.8667ZM9.93972 12.8889C10.6064 12.8889 11.1518 13.4489 11.1518 14.1333C11.1518 14.8178 10.6064 15.3778 9.93972 15.3778C9.27305 15.3778 8.7276 14.8178 8.7276 14.1333C8.7276 13.4489 9.27305 12.8889 9.93972 12.8889ZM24.4852 9.15555H14.7882V19.1111H5.09123V6.66666H2.66699V25.3333H5.09123V21.6H26.9094V25.3333H29.3337V14.1333C29.3337 11.3831 27.164 9.15555 24.4852 9.15555ZM26.9094 19.1111H17.2124V11.6444H24.4852C25.8185 11.6444 26.9094 12.7644 26.9094 14.1333V19.1111Z" />
</g>
<defs>
<clipPath id="clip0">
<rect width="32" height="32" fill="white"/>
</clipPath>
</defs>
</svg>
