<svg width="32" height="32" viewBox="0 0 32 32" fill="none" xmlns="http://www.w3.org/2000/svg">
<path fill-rule="evenodd" clip-rule="evenodd" d="M20.0036 8.66667C20.0036 6.09333 22.0969 4 24.6702 4C27.2436 4 29.3369 6.09333 29.3369 8.66667C29.3369 11.24 27.2436 13.3333 24.6702 13.3333C22.0969 13.3333 20.0036 11.24 20.0036 8.66667ZM22.6702 8.66667C22.6702 9.77333 23.5636 10.6667 24.6702 10.6667C25.7769 10.6667 26.6702 9.77333 26.6702 8.66667C26.6702 7.56 25.7769 6.66667 24.6702 6.66667C23.5636 6.66667 22.6702 7.56 22.6702 8.66667Z" />
<path fill-rule="evenodd" clip-rule="evenodd" d="M20.057 17.0533L8.72366 5.72C8.47033 5.46667 8.12366 5.33333 7.77699 5.33333C7.43033 5.33333 7.09699 5.46667 6.84366 5.72L3.05699 9.50667C2.53699 10.0267 2.53699 10.88 3.05699 11.4L14.3903 22.7333C14.657 23 14.9903 23.12 15.337 23.12C15.6837 23.12 16.017 22.9867 16.2837 22.7333L20.057 18.96C20.577 18.4267 20.577 17.5733 20.057 17.0533ZM15.337 19.8933L5.88366 10.44L7.77699 8.54667L17.2303 18L15.337 19.8933Z" />
<path d="M21.0109 21.7892L19.1253 23.6748L24.7821 29.3316L26.6677 27.446L21.0109 21.7892Z" />
</svg>
