<svg width="32" height="32" viewBox="0 0 32 32" fill="none" xmlns="http://www.w3.org/2000/svg">
<path fill-rule="evenodd" clip-rule="evenodd" d="M28 3.4834L26.245 4.06839C23.7936 4.88553 21.8475 7.049 20.4162 9.49276C18.9632 11.9735 17.9168 14.9506 17.3592 17.7385L17.0403 19.3333H20V29.3333H28V3.4834ZM20.3467 16.6666C20.8923 14.6232 21.7021 12.5736 22.7172 10.8405C23.5209 9.46832 24.4079 8.37039 25.3333 7.60957V26.6666H22.6667V16.6666H20.3467Z" />
<path d="M4 5.3333V18.6666H8V29.3333H10.6667V18.6666H14.6667V5.3333H12V16H10.6667V5.3333H8V16H6.66667V5.3333H4Z" />
</svg>
