<svg width="32" height="32" viewBox="0 0 32 32" fill="none" xmlns="http://www.w3.org/2000/svg">
<path d="M16 1.33334L4 6.66668V14.6667C4 22.0667 9.12 28.9867 16 30.6667C22.88 28.9867 28 22.0667 28 14.6667V6.66668L16 1.33334ZM25.3333 14.6667C25.3333 20.6933 21.36 26.2533 16 27.9067C10.64 26.2533 6.66667 20.6933 6.66667 14.6667V8.40001L16 4.25334L25.3333 8.40001V14.6667Z" />
<path d="M16.3831 14.7603C14.1532 14.1807 13.4361 13.5815 13.4361 12.6483C13.4361 11.5776 14.4283 10.831 16.0884 10.831C17.8369 10.831 18.4853 11.666 18.5442 12.8939H20.7151C20.6464 11.2043 19.6149 9.65226 17.5619 9.15128V7H14.6149V9.12181C12.7092 9.53438 11.1768 10.7721 11.1768 12.668C11.1768 14.9371 13.053 16.0668 15.7937 16.7249C18.2495 17.3143 18.7407 18.1788 18.7407 19.0923C18.7407 19.7701 18.2593 20.8507 16.0884 20.8507C14.0648 20.8507 13.2692 19.9469 13.1611 18.7878H11C11.1179 20.9391 12.7289 22.1473 14.6149 22.5501V24.6817H17.5619V22.5697C19.4774 22.2063 21 21.0963 21 19.0825C21 16.2927 18.613 15.3399 16.3831 14.7603Z" />
</svg>
