<svg width="32" height="32" viewBox="0 0 32 32" fill="none" xmlns="http://www.w3.org/2000/svg">
<path fill-rule="evenodd" clip-rule="evenodd" d="M11.7569 1L3.9993 13.4122V22.8132L2.37695 26.0579L6.36147 30.0424L15.9993 25.9119L25.6371 30.0424L29.6216 26.0579L27.9993 22.8132V13.4122L20.2416 1L15.9993 5.24235L11.7569 1ZM15.9993 6.06831L12.5082 14.2142L15.9993 15.0869L19.4904 14.2142L15.9993 6.06831ZM17.3326 17.5023V23.5821L25.0281 26.8802L26.377 25.5314L25.3326 23.4427V14.177L19.7569 5.25594L18.9138 6.09913L22.666 14.8543V21.128H19.9993V16.8357L17.3326 17.5023ZM14.666 17.5023L11.9993 16.8357V21.128H9.33263V14.8543L13.0848 6.09913L12.2417 5.25594L6.66597 14.177V23.4427L5.62165 25.5314L6.97046 26.8802L14.666 23.5821V17.5023Z" />
</svg>
