<svg width="32" height="32" viewBox="0 0 32 32" fill="none" xmlns="http://www.w3.org/2000/svg">
<path d="M1.33301 28H17.333V30.6667H1.33301V28ZM6.98634 10.76L10.7597 6.98666L29.613 25.84L25.8397 29.6133L6.98634 10.76ZM15.0121 2.74754C15.7932 1.96649 17.0595 1.96649 17.8406 2.74754L22.5588 7.46578C23.3398 8.24683 23.3398 9.51316 22.5588 10.2942L20.1997 12.6533L12.653 5.10666L15.0121 2.74754ZM5.10634 12.64L12.653 20.1867L10.2939 22.5458C9.51284 23.3268 8.24651 23.3268 7.46546 22.5458L2.74722 17.8275C1.96617 17.0465 1.96617 15.7802 2.74722 14.9991L5.10634 12.64Z" />
</svg>
