<svg width="32" height="32" viewBox="0 0 32 32" fill="none" xmlns="http://www.w3.org/2000/svg">
<path d="M5.33366 5.33332H13.3337V2.66666H5.33366C3.8609 2.66666 2.66699 3.86056 2.66699 5.33332V26.6667C2.66699 28.1394 3.8609 29.3333 5.33366 29.3333H13.3337V26.6667H5.33366V5.33332Z" />
<path fill-rule="evenodd" clip-rule="evenodd" d="M20.0003 9.33332C18.5276 9.33332 17.3337 10.5272 17.3337 12V26.6667C17.3337 28.1394 18.5276 29.3333 20.0003 29.3333H26.667C28.1398 29.3333 29.3337 28.1394 29.3337 26.6667V12C29.3337 10.5272 28.1398 9.33332 26.667 9.33332H20.0003ZM26.667 12H20.0003V14.6667H26.667V12ZM26.667 16H20.0003V26.6667H26.667V16Z" />
<path d="M20.0003 5.33332C20.0003 3.86056 21.1942 2.66666 22.667 2.66666H24.0003C25.4731 2.66666 26.667 3.86056 26.667 5.33332V7.99999H20.0003V5.33332Z" />
<path d="M8.00033 9.33332V6.66666H13.3337V9.33332H8.00033Z" />
<path d="M8.00033 10.6667V13.3333H13.3337V10.6667H8.00033Z" />
<path d="M8.00033 17.3333V14.6667H13.3337V17.3333H8.00033Z" />
<path d="M8.00033 18.6667V21.3333H13.3337V18.6667H8.00033Z" />
<path d="M8.00033 25.3333V22.6667H13.3337V25.3333H8.00033Z" />
</svg>
