<svg width="180" height="180" viewBox="0 0 180 180" fill="none" xmlns="http://www.w3.org/2000/svg">
<g clip-path="url(#clip0)">
<path d="M169.837 0H10.1637C4.56042 0 0 4.56042 0 10.1637V169.837C0 175.44 4.56042 180.001 10.1637 180.001H169.837C175.44 180.001 180.001 175.44 180.001 169.837V10.1637C180.001 4.56042 175.44 0 169.837 0ZM172.799 169.837C172.799 171.47 171.47 172.799 169.837 172.799H10.1637C8.52869 172.799 7.19978 171.47 7.19978 169.837V38.4752H172.799V169.837ZM172.799 31.2754H7.19978V10.1637C7.19978 8.52869 8.52869 7.19978 10.1637 7.19978H169.837C171.47 7.19978 172.799 8.52869 172.799 10.1637V31.2754Z" fill="#D0D0D0"/>
<path d="M156.262 15.6377H52.9871C50.9983 15.6377 49.3879 17.2481 49.3879 19.2368C49.3879 21.2271 50.9983 22.8375 52.9871 22.8375H156.262C158.252 22.8375 159.862 21.2271 159.862 19.2368C159.862 17.2481 158.252 15.6377 156.262 15.6377Z" fill="#D0D0D0"/>
<path d="M26.2798 16.7019C25.4492 15.8375 24.2264 15.4437 23.0375 15.6929C22.7883 15.7667 22.5699 15.8375 22.3561 15.9113C22.1377 15.982 21.9239 16.1266 21.7439 16.2343C21.5255 16.3789 21.3471 16.5234 21.2025 16.7019C20.8442 17.0264 20.5904 17.4232 20.412 17.8554C20.232 18.2876 20.1228 18.7552 20.1228 19.2228C20.1228 19.7257 20.232 20.1579 20.412 20.6255C20.5904 21.0577 20.8442 21.4561 21.2025 21.7791C21.8885 22.4651 22.7883 22.8234 23.7235 22.8234C24.2264 22.8234 24.694 22.7496 25.1262 22.5697C25.5584 22.3912 25.9552 22.1021 26.2798 21.7791C26.9642 21.0931 27.3241 20.1933 27.3241 19.2228C27.3241 18.7552 27.2503 18.2876 27.0703 17.8554C26.8904 17.4232 26.6028 17.0264 26.2798 16.7019Z" fill="#D0D0D0"/>
<path d="M35.6021 16.7017C35.2437 17.0263 34.9915 17.4231 34.8115 17.8553C34.6331 18.2875 34.5239 18.7551 34.5239 19.2227C34.5239 19.7256 34.6331 20.1578 34.8115 20.6254C34.9915 21.0576 35.2437 21.456 35.6021 21.779C35.9267 22.102 36.3235 22.3911 36.7557 22.5695C37.1879 22.7495 37.6555 22.8233 38.123 22.8233C39.0936 22.8233 39.9934 22.465 40.6793 21.779C41.3653 21.093 41.7237 20.1932 41.7237 19.2227C41.7237 18.2875 41.3653 17.3493 40.6793 16.7017C39.3827 15.3698 36.9356 15.3344 35.6021 16.7017Z" fill="#D0D0D0"/>
<path d="M64.2673 82.8057H57.5982L37.2231 111.96V116.033H58.4395V128.468H64.2673V116.033H70.6627V111.188H64.2673V82.8057ZM58.4395 95.944V111.188H43.4755V111.045L54.6466 95.521C55.9109 93.4169 57.0383 91.4482 58.4395 88.7765H58.6502C58.5072 91.1682 58.4395 93.5538 58.4395 95.944Z" fill="#D0D0D0"/>
<path d="M90.638 82.0342C81.3649 82.0342 74.7588 90.466 74.7588 105.778C74.9018 120.885 80.9419 129.241 89.8659 129.241C99.9788 129.241 105.739 120.672 105.739 105.149C105.739 90.6029 100.259 82.0342 90.638 82.0342ZM90.215 124.465C84.5979 124.465 80.9419 117.721 80.9419 105.847C80.9419 93.4176 84.8779 86.8099 90.2827 86.8099C96.6781 86.8099 99.5558 94.1897 99.5558 105.428C99.5558 117.087 96.535 124.465 90.215 124.465Z" fill="#D0D0D0"/>
<path d="M136.387 82.8057H129.711L109.336 111.96V116.033H130.553V128.468H136.387V116.033H142.776V111.188H136.387V82.8057ZM130.553 95.944V111.188H115.589V111.045L126.76 95.521C128.024 93.4169 129.152 91.4482 130.553 88.7765H130.765C130.622 91.1682 130.553 93.5538 130.553 95.944Z" fill="#D0D0D0"/>
</g>
<defs>
<clipPath id="clip0">
<rect width="180" height="180" fill="white"/>
</clipPath>
</defs>
</svg>
